<?xml version="1.0" encoding="UTF-8" standalone="no"?>
<svg
   viewBox="0 0 558.75 507"
   version="1.1"
   id="svg26"
   sodipodi:docname="desarrollo-Integracion_v2.svg"
   inkscape:export-filename="desarrollo-Integracion_v2.svg"
   inkscape:export-xdpi="96"
   inkscape:export-ydpi="96"
   inkscape:version="1.4.2 (f4327f4, 2025-05-13)"
   xmlns:inkscape="http://www.inkscape.org/namespaces/inkscape"
   xmlns:sodipodi="http://sodipodi.sourceforge.net/DTD/sodipodi-0.dtd"
   xmlns="http://www.w3.org/2000/svg"
   xmlns:svg="http://www.w3.org/2000/svg">
  <defs
     id="defs26" />
  <sodipodi:namedview
     id="namedview26"
     pagecolor="#ffffff"
     bordercolor="#000000"
     borderopacity="0.25"
     inkscape:showpageshadow="2"
     inkscape:pageopacity="0.0"
     inkscape:pagecheckerboard="0"
     inkscape:deskcolor="#d1d1d1"
     inkscape:zoom="1.8609467"
     inkscape:cx="450.30843"
     inkscape:cy="113.11447"
     inkscape:window-width="3840"
     inkscape:window-height="2126"
     inkscape:window-x="2869"
     inkscape:window-y="-11"
     inkscape:window-maximized="1"
     inkscape:current-layer="svg26" />
  <g
     id="g26">
    <path
       d="m 123.28,19.04 c 4.33,1.1 4.11,7.5 -0.35,7.93 -9.87,0.95 -23.15,-2.38 -31.87,2.92 -5.63,3.42 -9.1,9.58 -9.53,16.14 l 0.02,87.14 c -0.37,5.81 -4.01,12.67 -9.12,15.59 -2.16,1.24 -8.81,3.14 -9.8,4.83 -0.66,1.11 -0.65,2.17 0,3.29 1.03,1.76 8.83,5.35 11.07,6.92 4.45,3.12 7.51,9.31 7.85,14.7 l -0.02,84.98 c 0.5,9.8 8.25,18.26 18.13,19.07 7.62,0.62 15.99,-0.51 23.69,0.06 4.38,1.24 4.05,7.46 -0.65,7.87 -11.35,-0.82 -24.23,2.3 -34.59,-3.33 C 79.5,282.47 74.24,273.73 73.63,263.96 L 73.57,178.34 C 72.3,167.22 59.22,168.28 55.36,160.32 c -0.54,-1.11 -0.68,-2.39 -1.16,-3.52 0.08,-0.92 -0.11,-1.98 0,-2.88 1.39,-11.54 14.22,-8.03 18.28,-16.87 0.55,-1.2 0.86,-2.62 1.12,-3.92 l 0.02,-87.58 c 0.8,-13.8 11.4,-25.28 25.3,-26.29 l 0.38,-0.22 h 23.99 z"
       style="fill:#3c5c77"
       id="path1" />
    <path
       d="m 436.49,19.04 c -4.33,1.1 -4.11,7.5 0.35,7.93 9.87,0.95 23.15,-2.38 31.87,2.92 5.63,3.42 9.1,9.58 9.53,16.14 l -0.02,87.14 c 0.37,5.81 4.01,12.67 9.12,15.59 2.16,1.24 8.81,3.14 9.8,4.83 0.66,1.11 0.65,2.17 0,3.29 -1.03,1.76 -8.83,5.35 -11.07,6.92 -4.45,3.12 -7.51,9.31 -7.85,14.7 l 0.02,84.98 c -0.5,9.8 -8.25,18.26 -18.13,19.07 -7.62,0.62 -15.99,-0.51 -23.69,0.06 -4.38,1.24 -4.05,7.46 0.65,7.87 11.35,-0.82 24.23,2.3 34.59,-3.33 8.61,-4.68 13.87,-13.42 14.48,-23.19 l 0.06,-85.62 c 1.27,-11.12 14.35,-10.06 18.21,-18.02 0.54,-1.11 0.68,-2.39 1.16,-3.52 -0.08,-0.92 0.11,-1.98 0,-2.88 -1.39,-11.54 -14.22,-8.03 -18.28,-16.87 -0.55,-1.2 -0.86,-2.62 -1.12,-3.92 l -0.02,-87.58 c -0.8,-13.8 -11.4,-25.28 -25.3,-26.29 l -0.38,-0.22 h -23.99 z"
       style="fill:#76a5bd;fill-opacity:1"
       id="path2" />
    <path
       d="m 85.48,475.06 v -60.68 h 12.87 v 60.68 z"
       style="fill:#666666"
       id="path3" />
    <path
       d="m 138.98,427.79 c 4.95,0 8.94,1.35 11.95,4.05 3.02,2.7 4.52,7.02 4.52,12.97 v 30.26 h -12.66 v -27.1 c 0,-3.32 -0.6,-5.82 -1.81,-7.51 -1.2,-1.69 -3.09,-2.53 -5.67,-2.53 -3.87,0 -6.52,1.32 -7.93,3.94 -1.41,2.63 -2.12,6.42 -2.12,11.37 v 21.83 H 112.6 v -46.4 h 9.67 l 1.7,5.93 h 0.71 c 1,-1.6 2.23,-2.9 3.71,-3.9 1.48,-1 3.13,-1.73 4.94,-2.2 1.81,-0.47 3.69,-0.71 5.62,-0.71 z"
       style="fill:#666666"
       id="path4" />
    <path
       d="m 185.04,465.81 c 1.38,0 2.73,-0.14 4.05,-0.41 1.31,-0.28 2.62,-0.62 3.92,-1.04 v 9.42 c -1.36,0.61 -3.04,1.11 -5.04,1.52 -2.01,0.4 -4.2,0.6 -6.58,0.6 -2.77,0 -5.25,-0.45 -7.45,-1.35 -2.2,-0.9 -3.93,-2.46 -5.19,-4.69 -1.26,-2.23 -1.89,-5.33 -1.89,-9.32 v -22.37 h -6.06 v -5.35 l 6.97,-4.23 3.65,-9.79 h 8.09 v 9.88 h 12.99 v 9.5 h -12.99 v 22.37 c 0,1.77 0.5,3.09 1.51,3.96 1.01,0.87 2.35,1.31 4.01,1.31 z"
       style="fill:#666666"
       id="path5" />
    <path
       d="m 217.52,427.79 c 4.29,0 7.98,0.82 11.08,2.47 3.1,1.65 5.49,4.03 7.18,7.16 1.69,3.13 2.53,6.95 2.53,11.46 v 6.14 h -29.92 c 0.14,3.57 1.21,6.37 3.22,8.41 2.01,2.03 4.79,3.05 8.36,3.05 2.96,0 5.67,-0.3 8.14,-0.91 2.46,-0.61 4.99,-1.52 7.59,-2.74 v 9.79 c -2.3,1.14 -4.7,1.97 -7.2,2.49 -2.51,0.53 -5.54,0.79 -9.11,0.79 -4.65,0 -8.76,-0.86 -12.35,-2.57 -3.58,-1.71 -6.39,-4.33 -8.42,-7.84 -2.03,-3.51 -3.05,-7.94 -3.05,-13.28 0,-5.34 0.92,-9.94 2.76,-13.55 1.84,-3.61 4.41,-6.32 7.7,-8.13 3.29,-1.81 7.12,-2.72 11.5,-2.72 z m 0.08,9 c -2.46,0 -4.5,0.79 -6.12,2.37 -1.62,1.58 -2.55,4.05 -2.8,7.43 h 17.76 c -0.03,-1.88 -0.37,-3.55 -1.02,-5.02 -0.65,-1.47 -1.62,-2.63 -2.91,-3.49 -1.29,-0.86 -2.93,-1.29 -4.92,-1.29 z"
       style="fill:#666666"
       id="path6" />
    <path
       d="m 261.18,495.48 c -6.47,0 -11.42,-1.13 -14.84,-3.38 -3.42,-2.25 -5.13,-5.42 -5.13,-9.48 0,-2.79 0.87,-5.13 2.61,-7.01 1.74,-1.88 4.3,-3.22 7.68,-4.03 -1.3,-0.55 -2.44,-1.46 -3.4,-2.72 -0.97,-1.26 -1.45,-2.59 -1.45,-4 0,-1.77 0.51,-3.24 1.54,-4.42 1.02,-1.18 2.5,-2.33 4.44,-3.47 -2.43,-1.05 -4.37,-2.74 -5.79,-5.06 -1.43,-2.32 -2.14,-5.06 -2.14,-8.22 0,-3.38 0.74,-6.25 2.22,-8.61 1.48,-2.37 3.64,-4.17 6.47,-5.42 2.83,-1.25 6.29,-1.87 10.35,-1.87 0.86,0 1.85,0.06 2.99,0.17 1.13,0.11 2.18,0.24 3.13,0.37 0.96,0.14 1.6,0.25 1.93,0.33 h 16.19 v 6.43 l -7.26,1.87 c 0.66,1.02 1.16,2.12 1.49,3.28 0.33,1.16 0.5,2.39 0.5,3.69 0,4.98 -1.74,8.86 -5.21,11.64 -3.47,2.78 -8.29,4.17 -14.46,4.17 -1.47,-0.08 -2.85,-0.19 -4.15,-0.33 -0.64,0.5 -1.12,1.02 -1.45,1.58 -0.33,0.55 -0.5,1.14 -0.5,1.74 0,0.6 0.26,1.11 0.77,1.51 0.51,0.4 1.29,0.71 2.32,0.91 1.04,0.21 2.33,0.31 3.88,0.31 h 7.89 c 5.09,0 8.97,1.09 11.64,3.28 2.67,2.19 4,5.4 4,9.63 0,5.42 -2.26,9.63 -6.79,12.62 -4.52,2.99 -11.02,4.48 -19.49,4.48 z m 0.54,-8.26 c 3.02,0 5.61,-0.28 7.78,-0.85 2.17,-0.57 3.84,-1.37 5,-2.41 1.16,-1.04 1.74,-2.28 1.74,-3.71 0,-1.16 -0.34,-2.08 -1.02,-2.76 -0.68,-0.68 -1.7,-1.16 -3.07,-1.43 -1.37,-0.28 -3.12,-0.42 -5.25,-0.42 h -6.56 c -1.55,0 -2.94,0.25 -4.17,0.75 -1.23,0.5 -2.21,1.2 -2.93,2.1 -0.72,0.9 -1.08,1.94 -1.08,3.13 0,1.74 0.84,3.11 2.51,4.11 1.67,1 4.02,1.49 7.04,1.49 z m 2.03,-35.19 c 2.38,0 4.12,-0.73 5.23,-2.2 1.11,-1.47 1.66,-3.46 1.66,-5.98 0,-2.79 -0.57,-4.89 -1.72,-6.29 -1.15,-1.4 -2.87,-2.1 -5.17,-2.1 -2.3,0 -4.07,0.7 -5.23,2.1 -1.16,1.4 -1.74,3.49 -1.74,6.29 0,2.52 0.57,4.51 1.72,5.98 1.15,1.47 2.9,2.2 5.25,2.2 z"
       style="fill:#666666"
       id="path7" />
    <path
       d="m 321.53,427.79 c 0.64,0 1.38,0.04 2.22,0.1 0.84,0.07 1.53,0.16 2.05,0.27 l -0.96,11.87 c -0.42,-0.14 -1,-0.24 -1.76,-0.31 -0.76,-0.07 -1.42,-0.1 -1.97,-0.1 -1.63,0 -3.22,0.21 -4.75,0.62 -1.54,0.42 -2.91,1.09 -4.13,2.01 -1.22,0.92 -2.18,2.14 -2.88,3.65 -0.71,1.51 -1.06,3.36 -1.06,5.54 v 23.62 h -12.66 v -46.4 h 9.59 l 1.87,7.8 h 0.62 c 0.91,-1.58 2.05,-3.02 3.42,-4.34 1.37,-1.31 2.93,-2.37 4.69,-3.15 1.76,-0.79 3.66,-1.18 5.71,-1.18 z"
       style="fill:#666666"
       id="path8" />
    <path
       d="m 350.23,427.71 c 6.23,0 11,1.36 14.32,4.07 3.32,2.71 4.98,6.83 4.98,12.37 v 30.92 h -8.84 l -2.45,-6.31 h -0.33 c -1.33,1.66 -2.68,3.02 -4.07,4.07 -1.38,1.05 -2.97,1.83 -4.77,2.32 -1.8,0.5 -3.98,0.75 -6.56,0.75 -2.74,0 -5.2,-0.53 -7.37,-1.58 -2.17,-1.05 -3.88,-2.66 -5.12,-4.83 -1.25,-2.17 -1.87,-4.93 -1.87,-8.28 0,-4.92 1.73,-8.56 5.19,-10.89 3.46,-2.34 8.65,-3.63 15.56,-3.88 l 8.05,-0.25 v -2.03 c 0,-2.43 -0.64,-4.22 -1.91,-5.35 -1.27,-1.13 -3.04,-1.7 -5.31,-1.7 -2.27,0 -4.44,0.32 -6.6,0.96 -2.16,0.64 -4.32,1.44 -6.47,2.41 l -4.19,-8.55 c 2.46,-1.3 5.22,-2.32 8.28,-3.07 3.06,-0.75 6.22,-1.12 9.48,-1.12 z m 6.73,25.85 -4.9,0.17 c -4.1,0.11 -6.94,0.84 -8.53,2.2 -1.59,1.36 -2.39,3.14 -2.39,5.35 0,1.94 0.57,3.31 1.7,4.13 1.13,0.82 2.62,1.22 4.44,1.22 2.71,0 5,-0.8 6.87,-2.41 1.87,-1.6 2.8,-3.89 2.8,-6.85 v -3.82 z"
       style="fill:#666666"
       id="path9" />
    <path
       d="m 401.41,475.89 c -4.59,0 -8.51,-0.84 -11.75,-2.51 -3.24,-1.67 -5.7,-4.27 -7.39,-7.78 -1.69,-3.51 -2.53,-8.01 -2.53,-13.49 0,-5.48 0.96,-10.3 2.88,-13.88 1.92,-3.58 4.59,-6.22 8.01,-7.91 3.42,-1.69 7.38,-2.53 11.89,-2.53 3.21,0 5.98,0.31 8.32,0.93 2.34,0.62 4.38,1.36 6.12,2.22 l -3.73,9.79 c -1.99,-0.8 -3.85,-1.46 -5.56,-1.97 -1.71,-0.51 -3.43,-0.77 -5.15,-0.77 -2.21,0 -4.05,0.52 -5.52,1.56 -1.47,1.04 -2.56,2.59 -3.28,4.67 -0.72,2.08 -1.08,4.68 -1.08,7.8 0,3.12 0.39,5.62 1.16,7.64 0.77,2.02 1.89,3.52 3.36,4.5 1.47,0.98 3.25,1.47 5.35,1.47 2.63,0 4.97,-0.35 7.01,-1.06 2.05,-0.71 4.04,-1.69 5.98,-2.97 v 10.83 c -1.94,1.22 -3.96,2.1 -6.08,2.64 -2.12,0.54 -4.79,0.81 -8.03,0.81 z"
       style="fill:#666666"
       id="path10" />
    <path
       d="m 430.62,410.48 c 1.88,0 3.5,0.44 4.86,1.31 1.36,0.87 2.03,2.5 2.03,4.88 0,2.38 -0.68,3.98 -2.03,4.88 -1.36,0.9 -2.97,1.35 -4.86,1.35 -1.89,0 -3.53,-0.45 -4.88,-1.35 -1.34,-0.9 -2.01,-2.52 -2.01,-4.88 0,-2.36 0.67,-4 2.01,-4.88 1.34,-0.87 2.97,-1.31 4.88,-1.31 z m 6.31,18.18 v 46.4 h -12.66 v -46.4 z"
       style="fill:#666666"
       id="path11" />
    <path
       d="m 491.38,451.78 c 0,3.87 -0.52,7.3 -1.56,10.29 -1.04,2.99 -2.55,5.51 -4.52,7.57 -1.98,2.06 -4.36,3.62 -7.14,4.67 -2.78,1.05 -5.91,1.58 -9.4,1.58 -3.27,0 -6.26,-0.53 -8.99,-1.58 -2.73,-1.05 -5.09,-2.61 -7.1,-4.67 -2.01,-2.06 -3.56,-4.59 -4.65,-7.57 -1.09,-2.99 -1.64,-6.42 -1.64,-10.29 0,-5.15 0.91,-9.5 2.74,-13.07 1.83,-3.57 4.43,-6.28 7.8,-8.13 3.38,-1.85 7.4,-2.78 12.08,-2.78 4.34,0 8.2,0.93 11.56,2.78 3.36,1.85 6,4.57 7.93,8.13 1.93,3.56 2.88,7.93 2.88,13.07 z m -32.08,0 c 0,3.04 0.33,5.6 1,7.68 0.67,2.08 1.7,3.64 3.11,4.69 1.41,1.05 3.25,1.58 5.52,1.58 2.27,0 4.06,-0.53 5.46,-1.58 1.4,-1.05 2.42,-2.61 3.07,-4.69 0.65,-2.08 0.98,-4.63 0.98,-7.68 0,-3.05 -0.33,-5.62 -0.98,-7.66 -0.65,-2.03 -1.68,-3.56 -3.09,-4.59 -1.41,-1.02 -3.25,-1.54 -5.52,-1.54 -3.35,0 -5.78,1.15 -7.28,3.44 -1.51,2.3 -2.26,5.74 -2.26,10.33 z m 25.93,-41.84 v 0.87 c -0.8,0.78 -1.85,1.73 -3.15,2.86 -1.3,1.14 -2.7,2.32 -4.19,3.55 -1.49,1.23 -2.96,2.41 -4.4,3.53 -1.44,1.12 -2.7,2.05 -3.78,2.8 h -8.42 v -1.12 c 0.91,-1.05 1.97,-2.3 3.17,-3.76 1.2,-1.45 2.4,-2.95 3.59,-4.5 1.19,-1.55 2.19,-2.96 2.99,-4.23 z"
       style="fill:#666666"
       id="path12" />
    <path
       d="m 528.19,427.79 c 4.95,0 8.94,1.35 11.95,4.05 3.01,2.7 4.52,7.02 4.52,12.97 v 30.26 H 532 v -27.1 c 0,-3.32 -0.6,-5.82 -1.81,-7.51 -1.2,-1.69 -3.09,-2.53 -5.67,-2.53 -3.88,0 -6.52,1.32 -7.93,3.94 -1.41,2.63 -2.12,6.42 -2.12,11.37 v 21.83 h -12.66 v -46.4 h 9.67 l 1.7,5.93 h 0.71 c 1,-1.6 2.23,-2.9 3.71,-3.9 1.48,-1 3.13,-1.73 4.94,-2.2 1.81,-0.47 3.69,-0.71 5.62,-0.71 z"
       style="fill:#666666"
       id="path13" />
    <path
       d="m 117.14,348.38 c 0,6.83 -1.31,12.54 -3.92,17.12 -2.61,4.58 -6.4,8.02 -11.35,10.33 -4.95,2.31 -10.92,3.47 -17.89,3.47 H 66.8 v -60.68 h 19.05 c 6.36,0 11.88,1.13 16.56,3.38 4.68,2.25 8.3,5.59 10.87,10 2.57,4.41 3.86,9.87 3.86,16.37 z m -13.36,0.33 c 0,-4.48 -0.66,-8.17 -1.97,-11.06 -1.31,-2.89 -3.25,-5.03 -5.81,-6.41 -2.56,-1.38 -5.72,-2.08 -9.48,-2.08 h -6.85 v 39.51 h 5.52 c 6.28,0 10.95,-1.67 14.01,-5.02 3.06,-3.35 4.59,-8.33 4.59,-14.94 z"
       style="fill:#666666"
       id="path14" />
    <path
       d="m 147.85,332.03 c 4.29,0 7.98,0.82 11.08,2.47 3.1,1.65 5.49,4.03 7.18,7.16 1.69,3.13 2.53,6.95 2.53,11.46 v 6.14 h -29.92 c 0.14,3.57 1.21,6.37 3.22,8.41 2.01,2.03 4.79,3.05 8.36,3.05 2.96,0 5.67,-0.3 8.13,-0.91 2.46,-0.61 4.99,-1.52 7.6,-2.74 v 9.79 c -2.3,1.14 -4.7,1.97 -7.2,2.49 -2.5,0.53 -5.54,0.79 -9.11,0.79 -4.65,0 -8.76,-0.86 -12.35,-2.57 -3.58,-1.71 -6.39,-4.33 -8.42,-7.84 -2.03,-3.51 -3.05,-7.94 -3.05,-13.28 0,-5.34 0.92,-9.94 2.76,-13.55 1.84,-3.61 4.41,-6.32 7.7,-8.13 3.29,-1.81 7.12,-2.72 11.5,-2.72 z m 0.09,9 c -2.46,0 -4.5,0.79 -6.12,2.37 -1.62,1.58 -2.55,4.05 -2.8,7.43 h 17.76 c -0.03,-1.88 -0.37,-3.55 -1.02,-5.02 -0.65,-1.47 -1.62,-2.63 -2.91,-3.49 -1.29,-0.86 -2.93,-1.29 -4.92,-1.29 z"
       style="fill:#666666"
       id="path15" />
    <path
       d="m 211.31,365.52 c 0,3.15 -0.74,5.82 -2.22,7.99 -1.48,2.17 -3.69,3.82 -6.62,4.94 -2.93,1.12 -6.59,1.68 -10.96,1.68 -3.24,0 -6.01,-0.21 -8.32,-0.62 -2.31,-0.41 -4.64,-1.11 -6.99,-2.07 v -10.46 c 2.52,1.13 5.22,2.07 8.11,2.8 2.89,0.73 5.43,1.1 7.62,1.1 2.46,0 4.23,-0.37 5.29,-1.1 1.06,-0.73 1.6,-1.69 1.6,-2.88 0,-0.77 -0.21,-1.47 -0.64,-2.1 -0.43,-0.62 -1.35,-1.33 -2.76,-2.12 -1.41,-0.79 -3.62,-1.82 -6.64,-3.09 -2.91,-1.22 -5.29,-2.45 -7.16,-3.69 -1.87,-1.25 -3.25,-2.72 -4.15,-4.42 -0.9,-1.7 -1.35,-3.87 -1.35,-6.5 0,-4.29 1.67,-7.52 5,-9.69 3.33,-2.17 7.8,-3.26 13.39,-3.26 2.88,0 5.62,0.29 8.24,0.87 2.61,0.58 5.31,1.51 8.07,2.78 l -3.82,9.13 c -2.3,-1 -4.46,-1.81 -6.5,-2.45 -2.03,-0.64 -4.1,-0.95 -6.21,-0.95 -1.85,0 -3.25,0.25 -4.19,0.75 -0.94,0.5 -1.41,1.26 -1.41,2.28 0,0.75 0.24,1.41 0.73,1.99 0.48,0.58 1.42,1.22 2.82,1.93 1.4,0.71 3.45,1.61 6.16,2.72 2.63,1.08 4.91,2.21 6.85,3.38 1.94,1.18 3.43,2.63 4.48,4.36 1.05,1.73 1.58,3.96 1.58,6.7 z"
       style="fill:#666666"
       id="path16" />
    <path
       d="m 239.2,331.94 c 6.23,0 11,1.36 14.32,4.07 3.32,2.71 4.98,6.83 4.98,12.37 v 30.92 h -8.84 l -2.45,-6.31 h -0.33 c -1.33,1.66 -2.68,3.02 -4.07,4.07 -1.38,1.05 -2.97,1.83 -4.77,2.32 -1.8,0.5 -3.98,0.75 -6.56,0.75 -2.74,0 -5.2,-0.53 -7.37,-1.58 -2.17,-1.05 -3.88,-2.66 -5.13,-4.83 -1.25,-2.17 -1.87,-4.93 -1.87,-8.28 0,-4.92 1.73,-8.56 5.19,-10.89 3.46,-2.34 8.65,-3.63 15.56,-3.88 l 8.05,-0.25 v -2.03 c 0,-2.43 -0.64,-4.22 -1.91,-5.35 -1.27,-1.13 -3.04,-1.7 -5.31,-1.7 -2.27,0 -4.44,0.32 -6.6,0.96 -2.16,0.64 -4.32,1.44 -6.47,2.41 l -4.19,-8.55 c 2.46,-1.3 5.22,-2.32 8.28,-3.07 3.06,-0.75 6.22,-1.12 9.48,-1.12 z m 6.72,25.86 -4.9,0.17 c -4.1,0.11 -6.94,0.84 -8.53,2.2 -1.59,1.36 -2.39,3.14 -2.39,5.35 0,1.94 0.57,3.31 1.7,4.13 1.13,0.82 2.61,1.22 4.44,1.22 2.71,0 5,-0.8 6.87,-2.41 1.87,-1.6 2.8,-3.89 2.8,-6.85 v -3.82 z"
       style="fill:#666666"
       id="path17" />
    <path
       d="m 296.43,332.03 c 0.64,0 1.38,0.04 2.22,0.1 0.84,0.07 1.53,0.16 2.05,0.27 l -0.96,11.87 c -0.42,-0.14 -1,-0.24 -1.76,-0.31 -0.76,-0.07 -1.42,-0.1 -1.97,-0.1 -1.63,0 -3.22,0.21 -4.75,0.62 -1.54,0.42 -2.91,1.09 -4.13,2.01 -1.22,0.92 -2.18,2.14 -2.88,3.65 -0.71,1.51 -1.06,3.36 -1.06,5.54 v 23.62 h -12.66 v -46.4 h 9.59 l 1.87,7.8 h 0.62 c 0.91,-1.58 2.05,-3.02 3.42,-4.34 1.37,-1.31 2.93,-2.37 4.69,-3.15 1.76,-0.79 3.66,-1.18 5.71,-1.18 z"
       style="fill:#666666"
       id="path18" />
    <path
       d="m 335.03,332.03 c 0.63,0 1.38,0.04 2.22,0.1 0.84,0.07 1.53,0.16 2.05,0.27 l -0.96,11.87 c -0.42,-0.14 -1,-0.24 -1.76,-0.31 -0.76,-0.07 -1.42,-0.1 -1.97,-0.1 -1.63,0 -3.22,0.21 -4.75,0.62 -1.54,0.42 -2.91,1.09 -4.13,2.01 -1.22,0.93 -2.18,2.14 -2.88,3.65 -0.7,1.51 -1.06,3.36 -1.06,5.54 v 23.62 h -12.66 v -46.4 h 9.59 l 1.87,7.8 h 0.62 c 0.91,-1.58 2.05,-3.02 3.42,-4.34 1.37,-1.31 2.93,-2.37 4.69,-3.15 1.76,-0.79 3.66,-1.18 5.71,-1.18 z"
       style="fill:#666666"
       id="path19" />
    <path
       d="m 387.9,356.02 c 0,3.87 -0.52,7.3 -1.56,10.29 -1.04,2.99 -2.55,5.51 -4.52,7.57 -1.98,2.06 -4.36,3.62 -7.14,4.67 -2.78,1.05 -5.91,1.58 -9.4,1.58 -3.27,0 -6.26,-0.53 -8.99,-1.58 -2.73,-1.05 -5.09,-2.61 -7.1,-4.67 -2.01,-2.06 -3.56,-4.59 -4.65,-7.57 -1.09,-2.99 -1.64,-6.42 -1.64,-10.29 0,-5.15 0.91,-9.5 2.74,-13.07 1.83,-3.57 4.43,-6.28 7.8,-8.13 3.38,-1.85 7.4,-2.78 12.08,-2.78 4.34,0 8.2,0.93 11.56,2.78 3.36,1.85 6,4.57 7.93,8.13 1.93,3.56 2.88,7.93 2.88,13.07 z m -32.09,0 c 0,3.04 0.33,5.6 1,7.68 0.67,2.08 1.7,3.64 3.11,4.69 1.41,1.05 3.25,1.58 5.52,1.58 2.27,0 4.06,-0.53 5.46,-1.58 1.4,-1.05 2.42,-2.61 3.07,-4.69 0.65,-2.08 0.98,-4.63 0.98,-7.68 0,-3.05 -0.33,-5.62 -0.98,-7.66 -0.65,-2.03 -1.68,-3.56 -3.09,-4.59 -1.41,-1.02 -3.25,-1.54 -5.52,-1.54 -3.35,0 -5.78,1.15 -7.28,3.44 -1.51,2.3 -2.26,5.74 -2.26,10.33 z"
       style="fill:#666666"
       id="path20" />
    <path
       d="m 411.01,379.3 h -12.66 v -64.58 h 12.66 z"
       style="fill:#666666"
       id="path21" />
    <path
       d="m 436.95,379.3 h -12.66 v -64.58 h 12.66 z"
       style="fill:#666666"
       id="path22" />
    <path
       d="m 493.4,356.02 c 0,3.87 -0.52,7.3 -1.56,10.29 -1.04,2.99 -2.55,5.51 -4.52,7.57 -1.98,2.06 -4.36,3.62 -7.14,4.67 -2.78,1.05 -5.91,1.58 -9.4,1.58 -3.27,0 -6.26,-0.53 -8.99,-1.58 -2.73,-1.05 -5.09,-2.61 -7.1,-4.67 -2.01,-2.06 -3.56,-4.59 -4.65,-7.57 -1.09,-2.99 -1.64,-6.42 -1.64,-10.29 0,-5.15 0.91,-9.5 2.74,-13.07 1.83,-3.57 4.43,-6.28 7.8,-8.13 3.38,-1.85 7.4,-2.78 12.08,-2.78 4.34,0 8.2,0.93 11.56,2.78 3.36,1.85 6,4.57 7.93,8.13 1.93,3.56 2.88,7.93 2.88,13.07 z m -32.08,0 c 0,3.04 0.33,5.6 1,7.68 0.67,2.08 1.7,3.64 3.11,4.69 1.41,1.05 3.25,1.58 5.52,1.58 2.27,0 4.06,-0.53 5.46,-1.58 1.4,-1.05 2.42,-2.61 3.07,-4.69 0.65,-2.08 0.98,-4.63 0.98,-7.68 0,-3.05 -0.33,-5.62 -0.98,-7.66 -0.65,-2.03 -1.68,-3.56 -3.09,-4.59 -1.41,-1.02 -3.25,-1.54 -5.52,-1.54 -3.35,0 -5.78,1.15 -7.28,3.44 -1.51,2.3 -2.26,5.74 -2.26,10.33 z"
       style="fill:#666666"
       id="path23" />
    <path
       d="m 34.74,428.18 c 4.29,0 7.98,0.82 11.08,2.47 3.1,1.65 5.49,4.03 7.18,7.16 1.69,3.13 2.53,6.95 2.53,11.46 v 6.14 H 25.61 c 0.14,3.57 1.21,6.37 3.22,8.41 2.01,2.03 4.79,3.05 8.36,3.05 2.96,0 5.67,-0.3 8.13,-0.91 2.46,-0.61 4.99,-1.52 7.6,-2.74 v 9.79 c -2.3,1.14 -4.7,1.97 -7.2,2.49 -2.5,0.53 -5.54,0.79 -9.11,0.79 -4.65,0 -8.76,-0.86 -12.35,-2.57 -3.58,-1.71 -6.39,-4.33 -8.42,-7.84 -2.03,-3.51 -3.05,-7.94 -3.05,-13.28 0,-5.34 0.92,-9.94 2.76,-13.55 1.84,-3.61 4.41,-6.32 7.7,-8.13 3.29,-1.81 7.12,-2.72 11.5,-2.72 z m 0.09,9.01 c -2.46,0 -4.5,0.79 -6.12,2.37 -1.62,1.58 -2.55,4.05 -2.8,7.43 h 17.76 c -0.03,-1.88 -0.37,-3.55 -1.02,-5.02 -0.65,-1.47 -1.62,-2.63 -2.91,-3.49 -1.29,-0.86 -2.93,-1.29 -4.92,-1.29 z"
       style="fill:#666666"
       id="path24" />
    <g
       id="c">
      <path
         d="M290.07,130.47c-8.38,9.01-14.17,5.11-16.85,2.04v-51.95h-39.45c-13.28,0-18.33,7.17-15.27,14.7,7.02,7.02,8.63,34.83-16.9,34.83s-23.74-23.74-17.62-34.47c6.13-10.72-8.17-15.06-8.17-15.06h-42.26c-6.2,0-11.23,5.03-11.23,11.23v139.15c0,6.2,5.03,11.23,11.23,11.23h139.66v-63.02c3.44-3.04,11.09-3.53,13.15.34,2.17,9.13,54,21.53,54-20.98s-38.43-40.81-50.3-28.04Z"
         style="fill:#3c5c77;"
         id="path25" />
      <path
         d="M423.47,80.55h-46.66c.25-1.35.77-2.81,1.67-4.38,7.39-12.93,9.55-41.57-21.25-41.57s-28.86,33.55-20.39,42.02c.54,1.33.87,2.65.99,3.94h-52.3v36.05c0,1.97,2.23,3.08,3.82,1.93,14.44-10.46,62.7-13.15,61.16,39.57-1.17,40.11-36.19,41.9-56.14,35.39-4.37-1.42-8.84,1.89-8.84,6.48v42.2h137.94c7.16,0,12.96-5.8,12.96-12.96V93.51c0-7.16-5.8-12.96-12.96-12.96Z"
         style="fill:#76a5bd;"
         id="path26" />
    </g>
  </g>
</svg>
